<svg width="16" height="17" viewBox="0 0 16 17" fill="none" xmlns="http://www.w3.org/2000/svg">
<g clip-path="url(#clip0_1_2055)">
<path fill-rule="evenodd" clip-rule="evenodd" d="M8 0.5C12.4183 0.5 16 4.08173 16 8.5C16 12.9183 12.4183 16.5 8 16.5C3.58173 16.5 0 12.9183 0 8.5C0 4.08173 3.58173 0.5 8 0.5Z" fill="white"/>
<path d="M9.04144 16.433V10.2524H10.7849L11.016 8.0771H9.04144L9.04437 6.98827C9.04437 6.42091 9.0983 6.11705 9.91372 6.11705H11.0038V3.94141H9.25992C7.16524 3.94141 6.42808 4.9966 6.42808 6.77136V8.07726H5.12231V10.2527H6.42808V16.3453C6.93677 16.4466 7.46267 16.5001 8.00114 16.5001C8.34899 16.5001 8.69648 16.4777 9.04144 16.433Z" fill="#3F3284"/>
</g>
<defs>
<clipPath id="clip0_1_2055">
<rect width="16" height="16" fill="white" transform="translate(0 0.5)"/>
</clipPath>
</defs>
</svg>
