<svg width="72" height="73" viewBox="0 0 72 73" fill="none" xmlns="http://www.w3.org/2000/svg">
<path fill-rule="evenodd" clip-rule="evenodd" d="M44.6636 47.4782C40.4953 50.5603 34.4324 52.2024 29.2031 52.2024C21.8771 52.2024 15.3089 49.4992 10.307 45.0024C9.92807 44.6487 10.2565 44.1687 10.7365 44.4466C16.1173 47.5793 22.7613 49.4487 29.6326 49.4487C34.2556 49.4487 39.3585 48.4887 44.0573 46.4929C44.7646 46.215 45.3457 46.9729 44.6636 47.4782Z" fill="white"/>
<path fill-rule="evenodd" clip-rule="evenodd" d="M46.4064 45.4826C45.8759 44.8005 42.8697 45.1542 41.5308 45.331C41.1266 45.3815 41.0509 45.0279 41.4298 44.7752C43.8297 43.0827 47.7453 43.5879 48.2 44.1437C48.6547 44.6994 48.0737 48.6403 45.8254 50.5097C45.4717 50.7876 45.1433 50.636 45.2949 50.2571C45.8001 48.994 46.9369 46.1899 46.4064 45.4826Z" fill="white"/>
<path fill-rule="evenodd" clip-rule="evenodd" d="M41.6066 32.9022V31.2601C41.6066 31.0075 41.7835 30.8559 42.0108 30.8559H49.3368C49.5642 30.8559 49.7663 31.0328 49.7663 31.2601V32.6496C49.7663 32.8769 49.5642 33.1801 49.2105 33.6853L45.4212 39.0914C46.8359 39.0662 48.3263 39.2683 49.5894 39.9756C49.8673 40.1272 49.9431 40.3798 49.9684 40.6072V42.3503C49.9684 42.6029 49.7158 42.8808 49.4379 42.7292C47.1896 41.5419 44.1834 41.4156 41.7077 42.7545C41.4551 42.8808 41.1772 42.6282 41.1772 42.3755V40.7082C41.1772 40.4556 41.1772 40.0009 41.4551 39.5967L45.8507 33.3064H42.0361C41.8087 33.3064 41.6066 33.1295 41.6066 32.9022ZM14.9046 43.0829H12.6816C12.4795 43.0576 12.3026 42.9061 12.2774 42.704V31.2854C12.2774 31.058 12.4795 30.8812 12.7068 30.8812H14.7783C15.0057 30.8812 15.1572 31.058 15.1825 31.2601V32.7506H15.233C15.7635 31.3107 16.7993 30.6286 18.1634 30.6286C19.5528 30.6286 20.437 31.3107 21.0433 32.7506C21.5738 31.3107 22.8117 30.6286 24.1253 30.6286C25.06 30.6286 26.0705 31.0075 26.702 31.8917C27.4094 32.8517 27.2578 34.2411 27.2578 35.4789V42.704C27.2578 42.9313 27.0557 43.1082 26.8283 43.1082H24.6305C24.4032 43.0829 24.2263 42.9061 24.2263 42.704V36.641C24.2263 36.161 24.2769 34.9484 24.1758 34.4937C23.999 33.7358 23.519 33.5085 22.8622 33.5085C22.3317 33.5085 21.7506 33.8622 21.5233 34.4432C21.2959 35.0242 21.3212 35.9842 21.3212 36.641V42.704C21.3212 42.9313 21.1191 43.1082 20.8917 43.1082H18.6687C18.4413 43.0829 18.2645 42.9061 18.2645 42.704V36.641C18.2645 35.3779 18.4666 33.4832 16.9003 33.4832C15.3088 33.4832 15.3593 35.3021 15.3593 36.641V42.704C15.3341 42.9061 15.1572 43.0829 14.9046 43.0829ZM56.0818 30.6286C59.3911 30.6286 61.1847 33.458 61.1847 37.0705C61.1847 40.5567 59.2143 43.3355 56.0818 43.3355C52.8483 43.3355 51.0799 40.5061 51.0799 36.9694C51.0547 33.4074 52.8483 30.6286 56.0818 30.6286ZM56.0818 32.978C54.4398 32.978 54.3387 35.2263 54.3387 36.6157C54.3387 38.0052 54.3135 40.9861 56.0565 40.9861C57.7744 40.9861 57.8754 38.5862 57.8754 37.121C57.8754 36.161 57.8249 34.999 57.547 34.0895C57.2944 33.2811 56.7891 32.978 56.0818 32.978ZM65.454 43.0829H63.231C63.0036 43.0576 62.8268 42.8808 62.8268 42.6787V31.2349C62.852 31.0328 63.0289 30.8559 63.2562 30.8559H65.3277C65.5298 30.8559 65.6814 31.0075 65.7319 31.1843V32.9274H65.7824C66.414 31.3612 67.2729 30.6286 68.8139 30.6286C69.7991 30.6286 70.7843 30.9822 71.4159 31.9675C71.9969 32.8769 71.9969 34.4179 71.9969 35.5295V42.7292C71.9716 42.9313 71.7948 43.0829 71.5675 43.0829H69.3444C69.1423 43.0576 68.9655 42.9061 68.9402 42.7292V36.5147C68.9402 35.2516 69.0918 33.4327 67.5508 33.4327C67.0203 33.4327 66.515 33.7864 66.2624 34.3421C65.9593 35.0495 65.9087 35.7316 65.9087 36.5147V42.6787C65.8835 42.9061 65.6814 43.0829 65.454 43.0829ZM35.7711 37.6262C35.7711 38.4852 35.7964 39.2178 35.3669 40.0009C35.0132 40.6325 34.4575 41.0114 33.8259 41.0114C32.967 41.0114 32.4618 40.3546 32.4618 39.3946C32.4618 37.4999 34.1543 37.1462 35.7711 37.1462V37.6262ZM38.0194 43.0576C37.8678 43.1839 37.6657 43.2092 37.4889 43.1082C36.7563 42.5019 36.6047 42.1987 36.2005 41.6177C34.988 42.8555 34.1038 43.2345 32.5375 43.2345C30.6682 43.2345 29.203 42.0724 29.203 39.7735C29.203 37.9546 30.1882 36.7421 31.5776 36.1358C32.7902 35.6052 34.4827 35.5042 35.7711 35.3526V35.0747C35.7711 34.5442 35.8216 33.9127 35.4932 33.458C35.2153 33.0538 34.7101 32.8769 34.2554 32.8769C33.3965 32.8769 32.6386 33.3064 32.4618 34.2158C32.4112 34.4179 32.2849 34.62 32.0828 34.62L29.9356 34.3927C29.7587 34.3421 29.5566 34.2158 29.6072 33.9379C30.1124 31.3107 32.4618 30.5275 34.5838 30.5275C35.67 30.5275 37.0847 30.8054 37.9436 31.6391C39.0299 32.6496 38.9289 34.0137 38.9289 35.4789V38.9399C38.9289 39.9756 39.3583 40.4304 39.7625 41.0114C39.9141 41.2135 39.9393 41.4661 39.7625 41.5924C39.2825 41.9713 38.4741 42.6787 38.0194 43.0576ZM6.5934 37.6262C6.5934 38.4852 6.61866 39.2178 6.18921 40.0009C5.83554 40.6325 5.27977 41.0114 4.64822 41.0114C3.78931 41.0114 3.28407 40.3546 3.28407 39.3946C3.28407 37.4999 4.97663 37.1462 6.5934 37.1462V37.6262ZM8.81646 43.0576C8.66489 43.1839 8.4628 43.2092 8.28596 43.1082C7.55336 42.5019 7.40179 42.1987 6.99759 41.6177C5.78501 42.8555 4.90084 43.2345 3.33459 43.2345C1.4652 43.2345 0 42.0724 0 39.7735C0 37.9546 0.985219 36.7421 2.37463 36.1358C3.58721 35.6052 5.27977 35.5042 6.56814 35.3526V35.0747C6.56814 34.5442 6.61866 33.9127 6.29025 33.458C6.01237 33.0538 5.50713 32.8769 5.05241 32.8769C4.1935 32.8769 3.43564 33.3064 3.25881 34.2158C3.20828 34.4179 3.08197 34.62 2.87987 34.62L0.732599 34.3927C0.555764 34.3421 0.353671 34.2158 0.404195 33.9379C0.909436 31.3107 3.25881 30.5275 5.38082 30.5275C6.46709 30.5275 7.88177 30.8054 8.74068 31.6391C9.82695 32.6496 9.7259 34.0137 9.7259 35.4789V38.9399C9.7259 39.9756 10.1554 40.4304 10.5595 41.0114C10.7111 41.2135 10.7364 41.4661 10.5595 41.5924C10.0796 41.9713 9.27118 42.6787 8.81646 43.0576Z" fill="white"/>
</svg>
