<svg width="16" height="16" viewBox="0 0 16 16" fill="none" xmlns="http://www.w3.org/2000/svg">
<g clip-path="url(#clip0_1_2271)">
<path d="M7.02406 0.0531425C4.3652 0.349959 1.71572 2.5011 1.60636 5.57394C1.53762 7.45013 2.07033 8.85767 3.85592 9.25291C4.63077 7.88599 3.60597 7.58448 3.44663 6.59561C2.79207 2.54328 8.12072 -0.220242 10.9092 2.60889C12.8386 4.56789 11.5685 10.5948 8.45659 9.96839C5.47592 9.37007 9.91568 4.57257 7.53646 3.63057C5.60246 2.86509 4.57453 5.9723 5.49154 7.51575C4.95415 10.1699 3.79656 12.671 4.26522 16C5.78524 14.8971 6.29764 12.785 6.71787 10.5823C7.48178 11.0463 7.88951 11.529 8.86432 11.604C12.4589 11.8821 14.4664 8.01565 13.9758 4.44916C13.54 1.28728 10.3843 -0.321784 7.02406 0.0531425Z" fill="#5F6C72"/>
</g>
<defs>
<clipPath id="clip0_1_2271">
<rect width="16" height="16" fill="white"/>
</clipPath>
</defs>
</svg>
