<svg width="25" height="24" viewBox="0 0 25 24" fill="none" xmlns="http://www.w3.org/2000/svg">
<path d="M12.5 16.5C16.6421 16.5 20 13.1421 20 9C20 4.85786 16.6421 1.5 12.5 1.5C8.35786 1.5 5 4.85786 5 9C5 13.1421 8.35786 16.5 12.5 16.5Z" stroke="#191C1F" stroke-width="1.5" stroke-linecap="round" stroke-linejoin="round"/>
<path d="M12.5 13.5C14.9853 13.5 17 11.4853 17 9C17 6.51472 14.9853 4.5 12.5 4.5C10.0147 4.5 8 6.51472 8 9C8 11.4853 10.0147 13.5 12.5 13.5Z" stroke="#191C1F" stroke-width="1.5" stroke-linecap="round" stroke-linejoin="round"/>
<path d="M17 15V22.5L12.5 20.25L8 22.5V15" stroke="#191C1F" stroke-width="1.5" stroke-linecap="round" stroke-linejoin="round"/>
</svg>
