<svg width="24" height="24" viewBox="0 0 24 24" fill="none" xmlns="http://www.w3.org/2000/svg">
<path d="M4.25626 16.5842C3.13959 14.7002 2.74899 12.4734 3.1578 10.3218C3.5666 8.17025 4.74669 6.24188 6.47652 4.89874C8.20636 3.55559 10.367 2.89003 12.5527 3.02701C14.7385 3.164 16.7991 4.0941 18.3477 5.6427C19.8963 7.19131 20.8264 9.25192 20.9634 11.4377C21.1004 13.6235 20.4349 15.7841 19.0917 17.5139C17.7486 19.2437 15.8202 20.4238 13.6686 20.8326C11.5171 21.2414 9.29025 20.8508 7.40626 19.7342L4.29376 20.6154C4.16624 20.6527 4.03103 20.655 3.90231 20.6221C3.77359 20.5892 3.6561 20.5222 3.56215 20.4283C3.4682 20.3343 3.40126 20.2168 3.36833 20.0881C3.33541 19.9594 3.33771 19.8242 3.37501 19.6967L4.25626 16.5842Z" stroke="#FA8232" stroke-width="1.5" stroke-linecap="round" stroke-linejoin="round"/>
<path d="M12 13.1155C12.6213 13.1155 13.125 12.6118 13.125 11.9905C13.125 11.3692 12.6213 10.8655 12 10.8655C11.3787 10.8655 10.875 11.3692 10.875 11.9905C10.875 12.6118 11.3787 13.1155 12 13.1155Z" fill="#FA8232"/>
<path d="M7.5 13.1155C8.12132 13.1155 8.625 12.6118 8.625 11.9905C8.625 11.3692 8.12132 10.8655 7.5 10.8655C6.87868 10.8655 6.375 11.3692 6.375 11.9905C6.375 12.6118 6.87868 13.1155 7.5 13.1155Z" fill="#FA8232"/>
<path d="M16.5 13.1155C17.1213 13.1155 17.625 12.6118 17.625 11.9905C17.625 11.3692 17.1213 10.8655 16.5 10.8655C15.8787 10.8655 15.375 11.3692 15.375 11.9905C15.375 12.6118 15.8787 13.1155 16.5 13.1155Z" fill="#FA8232"/>
</svg>
