<svg width="24" height="24" viewBox="0 0 24 24" fill="none" xmlns="http://www.w3.org/2000/svg">
<path d="M5.25 21.7405H18.75" stroke="#FA8232" stroke-width="1.5" stroke-linecap="round" stroke-linejoin="round"/>
<path d="M19.5 9.74048C19.5 16.4905 12 21.7405 12 21.7405C12 21.7405 4.5 16.4905 4.5 9.74048C4.5 7.75135 5.29018 5.8437 6.6967 4.43718C8.10322 3.03065 10.0109 2.24048 12 2.24048C13.9891 2.24048 15.8968 3.03065 17.3033 4.43718C18.7098 5.8437 19.5 7.75135 19.5 9.74048V9.74048Z" stroke="#FA8232" stroke-width="1.5" stroke-linecap="round" stroke-linejoin="round"/>
<path d="M12 12.7405C13.6569 12.7405 15 11.3973 15 9.74048C15 8.08362 13.6569 6.74048 12 6.74048C10.3431 6.74048 9 8.08362 9 9.74048C9 11.3973 10.3431 12.7405 12 12.7405Z" stroke="#FA8232" stroke-width="1.5" stroke-linecap="round" stroke-linejoin="round"/>
</svg>
