<svg width="25" height="24" viewBox="0 0 25 24" fill="none" xmlns="http://www.w3.org/2000/svg">
<path d="M21.6406 12.75H18.6406C18.2428 12.75 17.8613 12.908 17.58 13.1893C17.2987 13.4707 17.1406 13.8522 17.1406 14.25V18C17.1406 18.3978 17.2987 18.7794 17.58 19.0607C17.8613 19.342 18.2428 19.5 18.6406 19.5H20.1406C20.5384 19.5 20.92 19.342 21.2013 19.0607C21.4826 18.7794 21.6406 18.3978 21.6406 18V12.75ZM21.6406 12.75C21.6407 11.5618 21.4054 10.3853 20.9484 9.28845C20.4915 8.1916 19.8218 7.1961 18.9781 6.35938C18.1344 5.52267 17.1334 4.8613 16.0328 4.41345C14.9322 3.96559 13.7538 3.74011 12.5656 3.75001C11.3782 3.74135 10.2008 3.96775 9.10132 4.41616C8.0018 4.86458 7.00189 5.52614 6.1592 6.36273C5.31651 7.19932 4.6477 8.1944 4.19131 9.29063C3.73492 10.3869 3.49997 11.5626 3.5 12.75V18C3.5 18.3978 3.65804 18.7794 3.93934 19.0607C4.22064 19.342 4.60218 19.5 5 19.5H6.5C6.89782 19.5 7.27936 19.342 7.56066 19.0607C7.84196 18.7794 8 18.3978 8 18V14.25C8 13.8522 7.84196 13.4707 7.56066 13.1893C7.27936 12.908 6.89782 12.75 6.5 12.75H3.5" stroke="#191C1F" stroke-width="1.5" stroke-linecap="round" stroke-linejoin="round"/>
</svg>
