<svg width="72" height="73" viewBox="0 0 72 73" fill="none" xmlns="http://www.w3.org/2000/svg">
<g clip-path="url('#clip0_2_43')">
<path d="M8.8671 24.763H9.50737C11.7302 24.8113 13.9168 25.7044 15.4872 27.2854C14.9074 27.8768 14.3154 28.444 13.7476 29.0354C12.8658 28.2389 11.8027 27.6233 10.6429 27.4061C8.9275 27.044 7.07918 27.3699 5.6416 28.3475C4.07113 29.3733 3.00804 31.1113 2.77851 32.9699C2.52482 34.8044 3.04428 36.7354 4.24025 38.1595C5.38791 39.5475 7.13958 40.4164 8.95166 40.4768C10.6429 40.5733 12.4067 40.0544 13.6389 38.8716C14.6054 38.0388 15.0523 36.7716 15.1973 35.5406C13.1919 35.5406 11.1866 35.5526 9.1812 35.5406V33.0544H17.6255C18.0604 35.7216 17.4322 38.7268 15.4027 40.6337C14.0497 41.9854 12.1772 42.7819 10.2684 42.9388C8.42012 43.1199 6.5114 42.7699 4.86844 41.8768C2.89932 40.8268 1.32884 39.0526 0.55569 36.9647C-0.169142 35.0457 -0.181223 32.8733 0.495288 30.9423C1.1114 29.1802 2.29529 27.6233 3.81744 26.5371C5.27918 25.463 7.05502 24.8716 8.8671 24.763Z" fill="white"></path>
<path d="M57.3101 25.3906H59.8953V42.625C59.0376 42.625 58.1678 42.6371 57.3101 42.613C57.3221 36.8802 57.3101 31.1354 57.3101 25.3906Z" fill="white"></path>
<path d="M23.3758 31.3647C24.9705 31.063 26.698 31.4009 28.0148 32.3543C29.2107 33.1992 30.0443 34.5268 30.298 35.975C30.6242 37.6526 30.2134 39.4871 29.1262 40.8147C27.9544 42.2992 26.0335 43.0957 24.1611 42.975C22.4456 42.8785 20.7785 42.0216 19.7637 40.6216C18.6161 39.0767 18.3382 36.9526 18.9664 35.1423C19.5946 33.1992 21.3705 31.7147 23.3758 31.3647ZM23.7382 33.6578C23.0859 33.8268 22.4819 34.2009 22.047 34.7319C20.8752 36.1319 20.9476 38.413 22.2403 39.7164C22.9772 40.4647 24.0886 40.8147 25.1154 40.6095C26.0698 40.4405 26.9033 39.8009 27.3624 38.9561C28.1597 37.5199 27.9302 35.5405 26.7101 34.4181C25.9248 33.694 24.7772 33.3923 23.7382 33.6578Z" fill="white"></path>
<path d="M36.1812 31.3647C38.0053 31.0147 39.9986 31.5216 41.3637 32.8009C43.5865 34.7923 43.8282 38.5216 41.9315 40.8147C40.7839 42.263 38.9235 43.0595 37.0872 42.975C35.3355 42.9268 33.608 42.0578 32.5691 40.6216C31.3973 39.0406 31.1436 36.8682 31.808 35.0216C32.4724 33.1389 34.212 31.7027 36.1812 31.3647ZM36.5436 33.6578C35.8912 33.8268 35.2872 34.2009 34.8523 34.7199C33.6926 36.0958 33.7409 38.3406 34.9852 39.6561C35.7221 40.4406 36.8698 40.8268 37.9328 40.6095C38.8751 40.4285 39.7208 39.8009 40.1798 38.9561C40.9651 37.5078 40.7355 35.5285 39.5033 34.4061C38.7181 33.682 37.5704 33.3923 36.5436 33.6578Z" fill="white"></path>
<path d="M47.0416 32.0647C48.4309 31.1958 50.2792 30.9544 51.7772 31.7027C52.2483 31.9078 52.6349 32.2578 53.0094 32.6078C53.0215 32.282 53.0094 31.944 53.0215 31.6061C53.8309 31.6182 54.6403 31.6061 55.4617 31.6182V42.263C55.4497 43.8682 55.0389 45.5699 53.8792 46.7406C52.6107 48.032 50.6658 48.4302 48.9141 48.1647C47.0416 47.8871 45.4107 46.5233 44.6859 44.7975C45.4107 44.4475 46.1718 44.1699 46.9208 43.844C47.3436 44.8337 48.2013 45.6785 49.2765 45.8716C50.3517 46.0647 51.596 45.7992 52.2966 44.9061C53.0456 43.9889 53.0456 42.7337 53.0094 41.6113C52.4537 42.1544 51.8134 42.6371 51.0403 42.8182C49.3611 43.2889 47.5128 42.7095 46.2201 41.5751C44.9154 40.4406 44.1423 38.6906 44.2148 36.9527C44.251 34.9854 45.3624 33.0906 47.0416 32.0647ZM49.5423 33.6096C48.8054 33.7302 48.1168 34.1406 47.6456 34.7078C46.5101 36.0596 46.5101 38.2199 47.6577 39.5475C48.3101 40.332 49.3611 40.7664 50.3758 40.6578C51.3302 40.5613 52.2121 39.9578 52.6832 39.1251C53.4805 37.713 53.3477 35.794 52.2725 34.563C51.6081 33.8027 50.545 33.4285 49.5423 33.6096Z" fill="white"></path>
<path d="M63 32.6802C64.4497 31.3285 66.6846 30.8699 68.545 31.5819C70.3087 32.2457 71.4322 33.9233 72 35.6492C69.3785 36.7354 66.7691 37.8095 64.1477 38.8957C64.5101 39.5836 65.0658 40.2112 65.8148 40.4647C66.8658 40.8388 68.1222 40.7061 69.004 40.0061C69.3544 39.7405 69.6322 39.3905 69.898 39.0526C70.5624 39.4992 71.2269 39.9336 71.8913 40.3802C70.949 41.7923 69.3665 42.7819 67.6631 42.9388C65.7785 43.1681 63.7732 42.444 62.553 40.9716C60.5476 38.6543 60.7409 34.7681 63 32.6802ZM64.2926 34.913C63.8819 35.5043 63.7128 36.2285 63.7248 36.9406C65.4765 36.2164 67.2282 35.4923 68.9799 34.7561C68.6899 34.0802 67.9893 33.6699 67.2765 33.5612C66.1289 33.3561 64.9329 33.9716 64.2926 34.913Z" fill="white"></path>
</g>
<defs>
<clipPath id="clip0_2_43">
<rect width="72" height="72" fill="white" transform="translate(0 0.500061)"></rect>
</clipPath>
</defs>
</svg>
