<svg width="16" height="17" viewBox="0 0 16 17" fill="none" xmlns="http://www.w3.org/2000/svg">
<g clip-path="url('#clip0_1_2066')">
<path d="M5.60062 8.50005C5.60062 7.17461 6.67485 6.09986 8.00034 6.09986C9.32582 6.09986 10.4006 7.17461 10.4006 8.50005C10.4006 9.82548 9.32582 10.9002 8.00034 10.9002C6.67485 10.9002 5.60062 9.82548 5.60062 8.50005ZM4.30308 8.50005C4.30308 10.542 5.95833 12.1972 8.00034 12.1972C10.0423 12.1972 11.6976 10.542 11.6976 8.50005C11.6976 6.45813 10.0423 4.80294 8.00034 4.80294C5.95833 4.80294 4.30313 6.45801 4.30313 8.50005H4.30308ZM10.98 4.65634C10.9799 4.82723 11.0305 4.99429 11.1254 5.13641C11.2203 5.27854 11.3552 5.38933 11.5131 5.45479C11.6709 5.52025 11.8446 5.53742 12.0122 5.50415C12.1799 5.47088 12.3339 5.38866 12.4547 5.26787C12.5756 5.14709 12.658 4.99317 12.6914 4.82559C12.7248 4.658 12.7078 4.48427 12.6424 4.32637C12.5771 4.16847 12.4664 4.03349 12.3243 3.93849C12.1823 3.8435 12.0153 3.79276 11.8444 3.79269H11.844C11.615 3.7928 11.3953 3.88381 11.2333 4.04574C11.0713 4.20768 10.9802 4.42729 10.98 4.65634ZM5.09142 14.3607C4.38942 14.3288 4.00786 14.2118 3.7543 14.1131C3.41813 13.9822 3.17828 13.8263 2.92609 13.5745C2.67391 13.3227 2.51781 13.0831 2.38751 12.7469C2.28867 12.4935 2.17173 12.1118 2.13982 11.4098C2.10491 10.6509 2.09794 10.4229 2.09794 8.50016C2.09794 6.57742 2.10549 6.35007 2.13982 5.5905C2.17179 4.88853 2.28959 4.50762 2.38751 4.25343C2.51838 3.91728 2.67425 3.67743 2.92609 3.42526C3.17793 3.17309 3.41755 3.01699 3.7543 2.8867C4.00775 2.78786 4.38942 2.67093 5.09142 2.63902C5.85039 2.60411 6.07838 2.59714 8.00034 2.59714C9.92229 2.59714 10.1505 2.60457 10.9101 2.63913C11.6121 2.6711 11.993 2.78889 12.2472 2.88681C12.5834 3.0171 12.8233 3.17355 13.0754 3.42537C13.3276 3.6772 13.4832 3.91739 13.614 4.25355C13.7129 4.50699 13.8298 4.88864 13.8617 5.59061C13.8966 6.35019 13.9036 6.57753 13.9036 8.50028C13.9036 10.423 13.8966 10.6504 13.8617 11.4099C13.8297 12.1119 13.7122 12.4935 13.614 12.747C13.4832 13.0832 13.3273 13.323 13.0754 13.5746C12.8236 13.8262 12.5834 13.9823 12.2472 14.1132C11.9938 14.212 11.6121 14.3289 10.9101 14.3608C10.1511 14.3958 9.92316 14.4027 8.00034 14.4027C6.07751 14.4027 5.85016 14.3958 5.09142 14.3608V14.3607ZM5.0318 1.34365C4.26529 1.37856 3.74151 1.50009 3.28409 1.67808C2.81066 1.86188 2.40934 2.10846 2.0086 2.50855C1.60786 2.90864 1.3619 3.31 1.17809 3.78399C1.0001 4.24168 0.878561 4.76515 0.843654 5.53163C0.808171 6.29933 0.800049 6.54476 0.800049 8.50005C0.800049 10.4553 0.808171 10.7008 0.843654 11.4685C0.878561 12.235 1.0001 12.7584 1.17809 13.2161C1.3619 13.6895 1.60792 14.0916 2.0086 14.4915C2.40928 14.8915 2.81008 15.1377 3.28409 15.322C3.74237 15.5 4.26529 15.6215 5.0318 15.6564C5.79993 15.6913 6.04497 15.7 8.00034 15.7C9.9557 15.7 10.2011 15.6919 10.9689 15.6564C11.7354 15.6215 12.2589 15.5 12.7166 15.322C13.19 15.1377 13.5913 14.8916 13.9921 14.4915C14.3928 14.0915 14.6383 13.6895 14.8226 13.2161C15.0006 12.7584 15.1227 12.2349 15.157 11.4685C15.1919 10.7002 15.2 10.4553 15.2 8.50005C15.2 6.54476 15.1919 6.29933 15.157 5.53163C15.1221 4.76509 15.0006 4.24139 14.8226 3.78399C14.6383 3.31058 14.3922 2.90928 13.9921 2.50855C13.592 2.10783 13.19 1.86188 12.7172 1.67808C12.2589 1.50009 11.7354 1.37798 10.9694 1.34365C10.2016 1.30857 9.95628 1.30005 8.0012 1.30005C6.04612 1.30005 5.80022 1.30817 5.03209 1.34365" fill="white"></path>
</g>
<defs>
<clipPath id="clip0_1_2066">
<rect width="16" height="16" fill="white" transform="translate(0 0.5)"></rect>
</clipPath>
</defs>
</svg>
