<svg width="72" height="73" viewBox="0 0 72 73" fill="none" xmlns="http://www.w3.org/2000/svg">
<path d="M7.33729 34.7812C7.33729 36.4207 6.54292 37.5311 4.53116 37.5311H3.89548V32.3097C4.12147 32.2969 4.33252 32.2969 4.53116 32.2969C6.43604 32.2967 7.33729 33.1954 7.33729 34.7812ZM5.27228 39.8045C8.87188 39.8045 11.1478 37.9535 11.1478 34.7289C11.1476 31.1858 8.71283 29.9172 4.74293 29.9172C3.20762 29.9172 1.35492 30.0226 0.0319214 30.1812V42.8189H3.89566V39.8045H5.27228ZM57.0403 34.7812C57.0403 36.4207 56.247 37.5311 54.2347 37.5311H53.6012V32.3097C53.8252 32.2969 54.0366 32.2969 54.2347 32.2969C56.1398 32.2967 57.0403 33.1954 57.0403 34.7812ZM54.9776 39.8045C58.5744 39.8045 60.8515 37.9535 60.8515 34.7289C60.8515 31.1858 58.4171 29.9172 54.4469 29.9172C52.9119 29.9172 51.0581 30.0226 49.735 30.1812V42.8189H53.6007V39.8045H54.9776ZM65.8794 33.4064C65.8794 32.7193 66.5683 32.4016 67.6788 32.4016C68.8968 32.4016 70.221 32.6662 71.1201 33.0377L70.8029 30.2873C69.7966 30.0758 68.8968 29.9172 67.2564 29.9172C64.133 29.9172 62.0164 31.147 62.0164 33.7247C62.0164 38.165 68.0516 37.2669 68.0516 39.3289C68.0516 40.1213 67.4685 40.544 66.0386 40.544C64.7701 40.544 62.8102 40.1213 61.6459 39.5399L62.0705 42.4489C63.2339 42.8719 64.822 43.0827 66.0928 43.0827C69.3207 43.0827 71.9679 42.0249 71.9679 38.8519C71.9679 34.6235 65.8794 35.4158 65.8794 33.4064ZM46.8248 30.1812H42.9611V42.8189H46.8248V30.1812ZM31.1563 30.1812H27.2922V42.8189H31.1563V30.1812ZM37.8787 40.28V30.1812H34.0146V42.8189H41.0024L41.5841 40.28H37.8787ZM24.4341 30.1812H20.57V35.2043H16.547V30.1812H12.6822V42.8189H16.5468V37.848H20.5698V42.8189H24.4339L24.4341 30.1812Z" fill="white"></path>
</svg>
