<svg width="16" height="17" viewBox="0 0 16 17" fill="none" xmlns="http://www.w3.org/2000/svg">
<g clip-path="url('#clip0_1_2058')">
<path d="M7.02418 0.55302C4.36532 0.849837 1.71584 3.00098 1.60648 6.07382C1.53775 7.95001 2.07046 9.35755 3.85605 9.75278C4.63089 8.38586 3.60609 8.08436 3.44675 7.09549C2.79219 3.04316 8.12084 0.279636 10.9094 3.10877C12.8387 5.06776 11.5686 11.0947 8.45671 10.4683C5.47604 9.86995 9.9158 5.07245 7.53658 4.13045C5.60258 3.36497 4.57466 6.47218 5.49167 8.01563C4.95427 10.6698 3.79668 13.1709 4.26534 16.4999C5.78536 15.397 6.29776 13.2849 6.71799 11.0822C7.4819 11.5462 7.88964 12.0289 8.86445 12.1039C12.4591 12.382 14.4665 8.51553 13.976 4.94904C13.5401 1.78715 10.3845 0.178094 7.02418 0.55302Z" fill="white"></path>
</g>
<defs>
<clipPath id="clip0_1_2058">
<rect width="16" height="16" fill="white" transform="translate(0 0.5)"></rect>
</clipPath>
</defs>
</svg>
