<svg width="24" height="24" viewBox="0 0 24 24" fill="none" xmlns="http://www.w3.org/2000/svg">
<path d="M12 20.9905C16.9706 20.9905 21 16.961 21 11.9905C21 7.01992 16.9706 2.99048 12 2.99048C7.02944 2.99048 3 7.01992 3 11.9905C3 16.961 7.02944 20.9905 12 20.9905Z" stroke="#FA8232" stroke-width="1.5" stroke-linecap="round" stroke-linejoin="round"></path>
<path d="M12 14.9905C14.0711 14.9905 15.75 13.3115 15.75 11.2405C15.75 9.16941 14.0711 7.49048 12 7.49048C9.92893 7.49048 8.25 9.16941 8.25 11.2405C8.25 13.3115 9.92893 14.9905 12 14.9905Z" stroke="#FA8232" stroke-width="1.5" stroke-linecap="round" stroke-linejoin="round"></path>
<path d="M5.9812 18.6842C6.54549 17.5727 7.40654 16.6392 8.4689 15.9871C9.53126 15.335 10.7534 14.9899 12 14.9899C13.2465 14.9899 14.4686 15.335 15.531 15.9871C16.5934 16.6392 17.4544 17.5727 18.0187 18.6842" stroke="#FA8232" stroke-width="1.5" stroke-linecap="round" stroke-linejoin="round"></path>
</svg>
