<svg width="26" height="26" viewBox="0 0 26 26" fill="none" xmlns="http://www.w3.org/2000/svg">
<path d="M22.9023 13.8126H19.6523C19.2214 13.8126 18.808 13.9838 18.5033 14.2885C18.1985 14.5933 18.0273 15.0066 18.0273 15.4376V19.5001C18.0273 19.9311 18.1985 20.3444 18.5033 20.6491C18.808 20.9539 19.2214 21.1251 19.6523 21.1251H21.2773C21.7083 21.1251 22.1216 20.9539 22.4264 20.6491C22.7311 20.3444 22.9023 19.9311 22.9023 19.5001V13.8126ZM22.9023 13.8126C22.9024 12.5253 22.6475 11.2508 22.1525 10.0626C21.6574 8.87432 20.932 7.79586 20.018 6.88942C19.104 5.98298 18.0195 5.2665 16.8272 4.78132C15.6349 4.29614 14.3583 4.05187 13.0711 4.06259C11.7847 4.05321 10.5092 4.29848 9.31809 4.78426C8.12695 5.27005 7.04371 5.98674 6.1308 6.89305C5.21788 7.79935 4.49334 8.87735 3.99892 10.0649C3.50449 11.2525 3.24997 12.5262 3.25 13.8126V19.5001C3.25 19.9311 3.4212 20.3444 3.72595 20.6491C4.0307 20.9539 4.44402 21.1251 4.875 21.1251H6.5C6.93098 21.1251 7.3443 20.9539 7.64905 20.6491C7.95379 20.3444 8.125 19.9311 8.125 19.5001V15.4376C8.125 15.0066 7.95379 14.5933 7.64905 14.2885C7.3443 13.9838 6.93098 13.8126 6.5 13.8126H3.25" stroke="white" stroke-width="1.5" stroke-linecap="round" stroke-linejoin="round"></path>
</svg>
