<svg width="17" height="16" viewBox="0 0 17 16" fill="none" xmlns="http://www.w3.org/2000/svg">
<path d="M9.0449 11.9188L12.1949 13.9188C12.6011 14.175 13.1011 13.7938 12.9824 13.325L12.0699 9.73752C12.0452 9.63807 12.0491 9.53369 12.0812 9.43638C12.1133 9.33907 12.1722 9.2528 12.2511 9.18752L15.0761 6.83127C15.4449 6.52502 15.2574 5.90627 14.7761 5.87502L11.0886 5.63752C10.988 5.63166 10.8913 5.59663 10.8103 5.53669C10.7293 5.47675 10.6674 5.39451 10.6324 5.30002L9.2574 1.83752C9.221 1.73745 9.15469 1.65102 9.06748 1.58994C8.98027 1.52886 8.87637 1.49609 8.7699 1.49609C8.66342 1.49609 8.55952 1.52886 8.47231 1.58994C8.3851 1.65102 8.31879 1.73745 8.2824 1.83752L6.90739 5.30002C6.87235 5.39451 6.81054 5.47675 6.72951 5.53669C6.64849 5.59663 6.55176 5.63166 6.45115 5.63752L2.76364 5.87502C2.28239 5.90627 2.09489 6.52502 2.46364 6.83127L5.28865 9.18752C5.3676 9.2528 5.42651 9.33907 5.45858 9.43638C5.49065 9.53369 5.49457 9.63807 5.4699 9.73752L4.62615 13.0625C4.4824 13.625 5.0824 14.0813 5.56365 13.775L8.4949 11.9188C8.57709 11.8665 8.67249 11.8387 8.7699 11.8387C8.8673 11.8387 8.9627 11.8665 9.0449 11.9188Z" fill="white" stroke="#ADB7BC" stroke-width="1.5" stroke-linecap="round" stroke-linejoin="round"></path>
</svg>
