<svg width="25" height="24" viewBox="0 0 25 24" fill="none" xmlns="http://www.w3.org/2000/svg">
<path d="M23.0656 11.4188L20.75 12.5719L17.75 6.83438L20.0938 5.66251C20.2679 5.57372 20.4701 5.55741 20.6563 5.61712C20.8425 5.67683 20.9975 5.80772 21.0875 5.98126L23.3937 10.3969C23.4405 10.4853 23.4691 10.5821 23.4779 10.6817C23.4867 10.7813 23.4755 10.8817 23.4449 10.9769C23.4143 11.0721 23.365 11.1603 23.2999 11.2362C23.2348 11.312 23.1551 11.3741 23.0656 11.4188V11.4188Z" stroke="#191C1F" stroke-width="1.5" stroke-linecap="round" stroke-linejoin="round"></path>
<path d="M4.25008 12.4781L1.93446 11.3156C1.8453 11.2719 1.76584 11.2107 1.70079 11.1357C1.63575 11.0607 1.58646 10.9734 1.55585 10.8789C1.52524 10.7844 1.51393 10.6848 1.52261 10.5859C1.53128 10.487 1.55975 10.3908 1.60633 10.3031L3.91258 5.88749C4.0028 5.71408 4.15716 5.58275 4.34277 5.52146C4.52839 5.46017 4.7306 5.47377 4.90633 5.55937L7.25009 6.73124L4.25008 12.4781Z" stroke="#191C1F" stroke-width="1.5" stroke-linecap="round" stroke-linejoin="round"></path>
<path d="M20.75 12.5719L19.25 14.3344L15.8 17.7844C15.706 17.8723 15.592 17.9362 15.468 17.9704C15.3439 18.0047 15.2133 18.0085 15.0875 17.9813L9.65 16.6219C9.55067 16.5942 9.45812 16.5463 9.37812 16.4813L4.25 12.4781" stroke="#191C1F" stroke-width="1.5" stroke-linecap="round" stroke-linejoin="round"></path>
<path d="M19.2501 14.3344L15.1251 11.3344L13.9251 12.2344C13.4052 12.6224 12.7738 12.832 12.1251 12.832C11.4763 12.832 10.845 12.6224 10.3251 12.2344L9.81883 11.85C9.73323 11.7849 9.66242 11.7024 9.6111 11.6079C9.55978 11.5134 9.52911 11.409 9.52113 11.3018C9.51316 11.1946 9.52805 11.0868 9.56483 10.9858C9.6016 10.8847 9.65942 10.7926 9.73446 10.7156L13.4095 7.04998C13.4785 6.98129 13.5604 6.92688 13.6505 6.88988C13.7406 6.85288 13.8371 6.83401 13.9345 6.83436H17.7501" stroke="#191C1F" stroke-width="1.5" stroke-linecap="round" stroke-linejoin="round"></path>
<path d="M7.30615 6.73127L12.1155 5.32502C12.2864 5.27601 12.4692 5.2893 12.6312 5.36252L15.8749 6.83439" stroke="#191C1F" stroke-width="1.5" stroke-linecap="round" stroke-linejoin="round"></path>
<path d="M11 19.9594L8.17813 19.2469C8.06313 19.2209 7.95666 19.166 7.86875 19.0875L5.75 17.25" stroke="#191C1F" stroke-width="1.5" stroke-linecap="round" stroke-linejoin="round"></path>
</svg>
