<svg width="15" height="15" viewBox="0 0 15 15" fill="none" xmlns="http://www.w3.org/2000/svg">
<path d="M8.96631 2.55005C9.72959 2.7549 10.4256 3.1569 10.9844 3.71572C11.5432 4.27454 11.9452 4.97052 12.1501 5.7338" stroke="white" stroke-width="1.5" stroke-linecap="round" stroke-linejoin="round"></path>
<path d="M8.49939 4.28809C8.95846 4.41001 9.37714 4.65111 9.713 4.98698C10.0489 5.32284 10.29 5.74152 10.4119 6.20059" stroke="white" stroke-width="1.5" stroke-linecap="round" stroke-linejoin="round"></path>
<path d="M5.20312 7.32002C5.66619 8.27628 6.43943 9.04754 7.39687 9.50814C7.4675 9.54158 7.54562 9.55606 7.62353 9.55014C7.70145 9.54422 7.77648 9.51812 7.84125 9.47439L9.2475 8.53502C9.30963 8.49288 9.38142 8.46717 9.45618 8.46028C9.53094 8.4534 9.60622 8.46556 9.675 8.49564L12.3075 9.62627C12.3975 9.66371 12.4726 9.7297 12.5214 9.81406C12.5702 9.89842 12.5899 9.99648 12.5775 10.0931C12.4941 10.7444 12.1762 11.3429 11.6834 11.7767C11.1906 12.2105 10.5566 12.4499 9.9 12.45C7.87109 12.45 5.92529 11.644 4.49063 10.2094C3.05598 8.77473 2.25 6.82892 2.25 4.80002C2.25015 4.14347 2.48952 3.50946 2.92333 3.01664C3.35713 2.52382 3.95565 2.20596 4.60687 2.12252C4.70353 2.1101 4.80159 2.1298 4.88596 2.17859C4.97032 2.22738 5.0363 2.30255 5.07375 2.39252L6.20437 5.03064C6.23378 5.09834 6.24608 5.17223 6.24019 5.2458C6.23431 5.31937 6.21041 5.39036 6.17062 5.45252L5.23125 6.88127C5.18943 6.94589 5.16488 7.02016 5.15996 7.09698C5.15503 7.17379 5.1699 7.25059 5.20312 7.32002V7.32002Z" stroke="white" stroke-width="1.5" stroke-linecap="round" stroke-linejoin="round"></path>
</svg>
