<svg width="72" height="73" viewBox="0 0 72 73" fill="none" xmlns="http://www.w3.org/2000/svg">
<g clip-path="url('#clip0_2_60')">
<path fill-rule="evenodd" clip-rule="evenodd" d="M62.965 39.1924C69.0781 36.2014 72.4497 32.7966 71.9516 29.9768C70.9032 24.0505 52.9411 23.096 34.4043 26.3869C25.9212 27.8933 17.8081 30.1542 12.3156 32.3964C12.6073 32.3779 12.8113 32.3914 12.8113 32.3914C15.1854 32.457 15.0403 33.933 15.0403 33.933L15.044 34.8347H13.1513V34.2227C13.1513 33.7884 12.6225 33.7593 12.6225 33.7593C12.2177 33.7593 12.1231 34.0342 12.1231 34.0342C11.899 34.4537 12.2824 34.8159 12.2824 34.8159C12.4778 35.0334 13.4619 35.489 13.4619 35.489C13.7806 35.6123 14.2943 35.9306 14.2943 35.9306C15.2571 36.5095 15.1698 37.6094 15.1698 37.6094V38.3337C15.0543 40.1289 12.579 40.0777 12.579 40.0777C9.98745 40.0777 10.044 38.3776 10.044 38.3776V37.489H12.0604V38.101C12.0604 38.6221 12.5639 38.6455 12.5639 38.6455C13.1141 38.6668 13.1608 38.1346 13.1608 38.1346C13.2357 37.6172 12.6655 37.2915 12.6655 37.2915C12.1616 37.0301 11.6597 36.7648 11.1599 36.4955C10.6966 36.1916 10.5086 35.9163 10.5086 35.9163C10.1755 35.4968 10.1976 34.845 10.1976 34.845V34.2804C10.1976 33.4988 10.4078 33.2747 10.4078 33.2747C10.4165 33.2578 10.4257 33.2412 10.4352 33.2247C3.66416 36.3538 -0.480899 39.9806 0.0443005 42.9626C1.10986 49.0118 18.0494 49.8054 37.973 46.7369C47.1467 45.3244 55.1304 42.7238 61.1723 40.0306C61.1293 40.0326 61.0834 40.0326 61.0395 40.0326C61.0395 40.0326 58.5975 40.2301 58.5397 38.2616V34.4541C58.5397 34.4541 58.2357 32.3554 60.9715 32.3554C60.9715 32.3554 62.7528 32.2976 63.2231 33.3542C63.2231 33.3542 63.455 33.6368 63.3935 34.8052H61.4963V34.2067C61.4963 34.2067 61.493 33.7233 61.001 33.7233C61.001 33.7233 60.4865 33.745 60.4865 34.1502V38.0875C60.4865 38.0875 60.4648 38.616 61.044 38.616C61.044 38.616 61.5193 38.6053 61.5193 38.0494V36.9109H61.0014V35.8507H63.4386V38.0875C63.4386 38.0875 63.432 38.5578 63.237 38.8327C63.2378 38.8331 63.0404 39.1359 62.965 39.1924ZM56.0182 39.8307H53.7834L51.7904 35.4337H51.7064L51.8191 39.8303H49.9436V32.6405H52.2472L54.1722 37.0019H54.2546L54.1194 32.6397H56.0182V39.8307ZM44.2668 38.0449C44.2668 38.6541 44.8452 38.6234 44.8452 38.6234C45.3958 38.6234 45.3675 38.0298 45.3675 38.0298V32.6094H47.3774V38.0953C47.3774 40.072 44.8747 40.0421 44.8747 40.0421C41.9935 40.0421 42.2045 38.0011 42.2045 38.0011V32.609H44.2602L44.2668 38.0449ZM37.9504 34.8347V34.2227C37.9504 33.788 37.4224 33.7593 37.4224 33.7593C37.0168 33.7593 36.9221 34.0342 36.9221 34.0342C36.6981 34.4537 37.0823 34.8159 37.0823 34.8159C37.2777 35.0326 38.2618 35.489 38.2618 35.489C38.5801 35.6119 39.0938 35.9306 39.0938 35.9306C40.0566 36.5095 39.9701 37.6094 39.9701 37.6094V38.3337C39.8542 40.1289 37.3793 40.0781 37.3793 40.0781C34.7874 40.0781 34.8439 38.3776 34.8439 38.3776V37.489H36.8607V38.101C36.8607 38.6221 37.3642 38.6455 37.3642 38.6455C37.9148 38.6668 37.9603 38.1346 37.9603 38.1346C38.0365 37.6172 37.4658 37.2915 37.4658 37.2915C36.9619 37.03 36.4601 36.7647 35.9602 36.4955C35.4965 36.1916 35.3089 35.9163 35.3089 35.9163C34.9762 35.4963 34.9971 34.8446 34.9971 34.8446V34.28C34.9971 33.4984 35.2073 33.2743 35.2073 33.2743C35.7431 32.2681 37.6104 32.391 37.6104 32.391C39.9844 32.4566 39.8394 33.933 39.8394 33.933L39.8435 34.8347H37.9504ZM28.0188 32.6385L28.6247 36.5738H28.7725L29.4063 32.6389H32.5366L32.739 39.8294H30.857L30.8123 34.4132H30.6824L29.7021 39.8282H27.7336L26.741 34.4115H26.5939L26.5714 39.8299H24.7L24.8581 32.6385H28.0188ZM20.6754 39.8217L19.938 34.2473H19.7729L19.0351 39.8217H17.0207L18.2653 32.6323H21.4456L22.691 39.8217H20.6754Z" fill="white"></path>
</g>
<defs>
<clipPath id="clip0_2_60">
<rect width="72" height="72" fill="white" transform="translate(0 0.500061)"></rect>
</clipPath>
</defs>
</svg>
