<svg width="24" height="24" viewBox="0 0 24 24" fill="none" xmlns="http://www.w3.org/2000/svg">
<path d="M8.25 20.25C8.25 20.6642 7.91421 21 7.5 21C7.08579 21 6.75 20.6642 6.75 20.25C6.75 19.8358 7.08579 19.5 7.5 19.5C7.91421 19.5 8.25 19.8358 8.25 20.25Z" fill="white" stroke="white" stroke-width="1.5"></path>
<path d="M18 20.25C18 20.6642 17.6642 21 17.25 21C16.8358 21 16.5 20.6642 16.5 20.25C16.5 19.8358 16.8358 19.5 17.25 19.5C17.6642 19.5 18 19.8358 18 20.25Z" fill="white" stroke="white" stroke-width="1.5"></path>
<path d="M3.96562 6.75H20.7844L18.3094 15.4125C18.2211 15.7269 18.032 16.0036 17.7711 16.2C17.5103 16.3965 17.1922 16.5019 16.8656 16.5H7.88437C7.55783 16.5019 7.2397 16.3965 6.97886 16.2C6.71803 16.0036 6.52893 15.7269 6.44062 15.4125L3.04688 3.54375C3.00203 3.38696 2.9073 3.24905 2.77704 3.15093C2.64677 3.05282 2.48808 2.99983 2.325 3H0.75" stroke="white" stroke-width="1.5" stroke-linecap="round" stroke-linejoin="round"></path>
</svg>
