<svg width="72" height="73" viewBox="0 0 72 73" fill="none" xmlns="http://www.w3.org/2000/svg">
<path fill-rule="evenodd" clip-rule="evenodd" d="M6.44413 41.7452H3.66657V33.7834H0.45459V31.3936H9.82719V33.7834H6.44413V41.7452ZM11.1413 34.1252C11.5604 31.6886 13.7328 31.3315 15.8126 31.3315C19.3821 31.3315 20.639 32.2161 20.639 35.9562C20.639 39.7894 20.546 41.8225 15.8903 41.8225C14.0436 41.8225 11.8398 41.6832 11.219 39.557C11.0173 38.8585 11.0016 38.1294 11.0016 37.3999V36.639C11.0016 35.8165 11.0016 34.9477 11.1413 34.1252ZM13.8415 37.2131C13.8415 38.6722 13.8725 39.448 15.5952 39.448C17.4886 39.448 17.7834 38.9822 17.7834 37.2131C17.7834 36.7167 17.7991 36.2046 17.7991 35.7078C17.7991 34.3265 17.5817 33.7061 16.092 33.7061C13.9196 33.7061 13.8882 33.9235 13.8419 36.5923V37.2131H13.8415ZM28.7539 34.6216C28.7539 33.566 28.3811 33.4267 27.3883 33.4267H27.1089C26.3794 33.4267 25.6036 33.4577 25.6036 34.3732C25.6036 35.0097 25.79 35.3044 26.4571 35.3511C28.8622 35.5528 31.7026 35.0717 31.7026 38.4084C31.7026 39.2933 31.7026 40.4106 30.9731 41.0314C30.1192 41.7452 28.9399 41.8072 27.8537 41.8072H27.1709C24.3153 41.8072 22.8253 41.6832 22.8253 38.3928H25.4635C25.4635 39.1686 25.6499 39.6344 26.5187 39.6344H27.7136C28.4121 39.6344 28.9706 39.541 28.9706 38.6098C28.9706 37.6943 28.4275 37.6943 27.6513 37.6479C24.6563 37.4462 22.8406 37.7253 22.8406 34.2802C22.8406 32.4798 23.5544 31.5333 25.4011 31.3936C26.0062 31.3469 26.6114 31.3159 27.2168 31.3159C29.6224 31.3159 31.4071 31.3625 31.4071 34.2959C31.4071 34.4046 31.3914 34.5133 31.3914 34.622H28.7539V34.6216ZM43.0261 41.7452H40.2478V37.6789H36.6473V41.7452H33.8694V31.3936H36.6473V35.3044H40.2478V31.3936H43.0261V41.7452ZM48.4501 41.7452H45.6726V31.3936H48.4501V41.7452ZM51.1145 31.3936H56.7481C58.6258 31.3936 59.8364 31.9057 59.8364 34.0318C59.8364 35.2267 59.7277 36.1889 58.2228 36.4373V36.53C59.6198 36.6543 60.0071 37.3992 60.0071 38.7648C60.0071 41.0926 59.2317 41.7448 56.7948 41.7448H51.1145V31.3936ZM55.6619 35.5371C56.4227 35.5061 57.0895 35.5995 57.0895 34.6526C57.0895 33.9078 56.8881 33.6747 56.1433 33.6747H53.8928V35.5371H55.6619ZM55.7399 39.4637C56.6088 39.4637 57.2449 39.448 57.2449 38.4394C57.2449 37.4772 56.7948 37.4462 55.9259 37.4462H53.8928V39.4637H55.7399ZM68.571 41.7452H71.3957L68.2446 31.3936H64.0394L60.935 41.7452H63.822L64.4136 39.6657H67.9708L68.571 41.7452ZM64.984 37.6636L66.1812 33.4577L67.3944 37.6636H64.984Z" fill="white"></path>
</svg>
