<svg width="16" height="17" viewBox="0 0 16 17" fill="none" xmlns="http://www.w3.org/2000/svg">
<path d="M8.35392 14.0024L5.07659 13.9425C4.01547 13.9216 2.9517 13.9633 1.91138 13.747C0.328813 13.4238 0.216699 11.8391 0.0993827 10.5098C-0.062267 8.64108 0.000312411 6.73841 0.305366 4.88525C0.477579 3.84544 1.15531 3.22497 2.20339 3.15746C5.74144 2.91242 9.30301 2.94146 12.8332 3.05578C13.2061 3.06626 13.5814 3.12354 13.9491 3.18874C15.7638 3.50673 15.808 5.30252 15.9257 6.81425C16.043 8.34157 15.9935 9.87673 15.7692 11.3937C15.5893 12.6496 15.2452 13.7029 13.7926 13.8046C11.9727 13.9375 10.1946 14.0445 8.36952 14.0105C8.3696 14.0024 8.35912 14.0024 8.35392 14.0024ZM6.42717 10.8226C7.79863 10.0354 9.14392 9.26139 10.5075 8.47948C9.13352 7.6923 7.79079 6.91824 6.42717 6.13634V10.8226Z" fill="white"></path>
</svg>
